<svg width="61" height="61" viewBox="0 0 61 61" fill="none" xmlns="http://www.w3.org/2000/svg">
<path d="M55.2812 3.8125H5.71875C5.21318 3.8125 4.72832 4.01334 4.37083 4.37083C4.01334 4.72832 3.8125 5.21318 3.8125 5.71875V43.8437C3.8125 44.3493 4.01334 44.8342 4.37083 45.1916C4.72832 45.5491 5.21318 45.75 5.71875 45.75H21.8456L28.8988 56.3297C29.0731 56.5891 29.3086 56.8018 29.5846 56.9488C29.8605 57.0958 30.1683 57.1727 30.4809 57.1727C30.7936 57.1727 31.1014 57.0958 31.3773 56.9488C31.6532 56.8018 31.8887 56.5891 32.0631 56.3297L39.1544 45.75H55.2812C55.7868 45.75 56.2717 45.5491 56.6292 45.1916C56.9867 44.8342 57.1875 44.3493 57.1875 43.8437V5.71875C57.1875 5.21318 56.9867 4.72832 56.6292 4.37083C56.2717 4.01334 55.7868 3.8125 55.2812 3.8125ZM32.4062 38.125C32.4062 38.6305 32.2054 39.1154 31.8479 39.4729C31.4904 39.8304 31.0056 40.0312 30.5 40.0312C29.9944 40.0312 29.5096 39.8304 29.1521 39.4729C28.7946 39.1154 28.5938 38.6305 28.5938 38.125V36.2187C28.5938 35.7132 28.7946 35.2283 29.1521 34.8708C29.5096 34.5133 29.9944 34.3125 30.5 34.3125C31.0056 34.3125 31.4904 34.5133 31.8479 34.8708C32.2054 35.2283 32.4062 35.7132 32.4062 36.2187V38.125ZM32.4062 28.5937C32.4062 29.0993 32.2054 29.5842 31.8479 29.9417C31.4904 30.2991 31.0056 30.5 30.5 30.5C29.9944 30.5 29.5096 30.2991 29.1521 29.9417C28.7946 29.5842 28.5938 29.0993 28.5938 28.5937V11.4375C28.5938 10.9319 28.7946 10.4471 29.1521 10.0896C29.5096 9.73208 29.9944 9.53125 30.5 9.53125C31.0056 9.53125 31.4904 9.73208 31.8479 10.0896C32.2054 10.4471 32.4062 10.9319 32.4062 11.4375V28.5937Z" fill="#DEDEDE"/>
</svg>
