<svg width="32" height="32" viewBox="0 0 32 32" fill="none" xmlns="http://www.w3.org/2000/svg">
<path d="M13.7572 11.0713C13.6028 10.9786 13.4104 10.9761 13.2537 11.0649C13.0969 11.1537 13 11.3199 13 11.5V20.5C13 20.6801 13.0969 20.8463 13.2537 20.9351C13.4104 21.0239 13.6028 21.0214 13.7572 20.9287L21.2572 16.4287C21.4079 16.3384 21.5 16.1756 21.5 16C21.5 15.8244 21.4079 15.6616 21.2572 15.5713L13.7572 11.0713ZM20.0282 16L14 19.6169V12.3831L20.0282 16Z" fill="#F5C518"/>
<path d="M16 3C8.8203 3 3 8.8203 3 16C3 23.1797 8.8203 29 16 29C23.1797 29 29 23.1797 29 16C29 8.8203 23.1797 3 16 3ZM4 16C4 9.37258 9.37258 4 16 4C22.6274 4 28 9.37258 28 16C28 22.6274 22.6274 28 16 28C9.37258 28 4 22.6274 4 16Z" fill="#F5C518"/>
</svg>
