<svg width="36" height="36" viewBox="0 0 36 36" fill="none" xmlns="http://www.w3.org/2000/svg">
<circle cx="18" cy="18" r="17.5" stroke="#F5C518"/>
<path d="M18.8646 12.2349H10.9999C10.7725 12.2349 10.5881 12.4193 10.5881 12.6467C10.5881 12.8741 10.7725 13.0585 10.9999 13.0585H18.8646C19.0554 13.9978 19.886 14.7055 20.8822 14.7055C21.8785 14.7055 22.7091 13.9978 22.8999 13.0585H25C25.2274 13.0585 25.4117 12.8741 25.4117 12.6467C25.4117 12.4193 25.2274 12.2349 25 12.2349H22.8999C22.7092 11.2951 21.8785 10.5879 20.8822 10.5879C19.886 10.5879 19.0553 11.2951 18.8646 12.2349ZM19.647 12.6467C19.647 11.9643 20.1998 11.4114 20.8822 11.4114C21.5647 11.4114 22.1175 11.9643 22.1175 12.6467C22.1175 13.3285 21.5646 13.882 20.8822 13.882C20.1999 13.882 19.647 13.3285 19.647 12.6467Z" fill="#F5C518"/>
<path d="M10.9999 17.5879C10.7725 17.5879 10.5881 17.7723 10.5881 17.9997C10.5881 18.2271 10.7725 18.4114 10.9999 18.4114H13.0999C13.2906 19.3513 14.1213 20.0585 15.1175 20.0585C16.1138 20.0585 16.9445 19.3513 17.1352 18.4114H24.9999C25.2273 18.4114 25.4117 18.2271 25.4117 17.9997C25.4117 17.7723 25.2273 17.5879 24.9999 17.5879H17.1352C16.9445 16.648 16.1138 15.9408 15.1175 15.9408C14.1213 15.9408 13.2906 16.648 13.0999 17.5879H10.9999ZM15.1175 16.7644C15.8 16.7644 16.3528 17.3172 16.3528 17.9997C16.3528 18.6821 15.8 19.2349 15.1175 19.2349C14.4351 19.2349 13.8823 18.6821 13.8823 17.9997C13.8823 17.3172 14.4351 16.7644 15.1175 16.7644Z" fill="#F5C518"/>
<path d="M10.5881 23.3526C10.5881 23.1252 10.7725 22.9408 10.9999 22.9408H18.8646C19.0553 22.001 19.886 21.2938 20.8822 21.2938C21.8785 21.2938 22.7092 22.001 22.8999 22.9408H24.9999C25.2273 22.9408 25.4117 23.1252 25.4117 23.3526C25.4117 23.58 25.2273 23.7644 24.9999 23.7644H22.8999C22.7091 24.7036 21.8785 25.4114 20.8822 25.4114C19.886 25.4114 19.0554 24.7036 18.8646 23.7644H10.9999C10.7725 23.7644 10.5881 23.58 10.5881 23.3526ZM22.1175 23.3526C22.1175 22.6702 21.5647 22.1173 20.8822 22.1173C20.1998 22.1173 19.647 22.6702 19.647 23.3526C19.647 24.0343 20.1999 24.5879 20.8822 24.5879C21.5646 24.5879 22.1175 24.0343 22.1175 23.3526Z" fill="#F5C518"/>
</svg>
