<svg width="14" height="14" viewBox="0 0 14 14" fill="none" xmlns="http://www.w3.org/2000/svg">
<path d="M6.22222 0C2.78578 0 0 2.78578 0 6.22222C0 9.65866 2.78578 12.4444 6.22222 12.4444C7.8005 12.4444 9.24152 11.8568 10.3385 10.8884L13.3361 13.8861C13.488 14.038 13.7342 14.038 13.8861 13.8861C14.038 13.7342 14.038 13.488 13.8861 13.3361L10.8884 10.3385C11.8568 9.24152 12.4444 7.8005 12.4444 6.22222C12.4444 2.78578 9.65866 0 6.22222 0ZM0.777778 6.22222C0.777778 3.21534 3.21534 0.777778 6.22222 0.777778C9.22911 0.777778 11.6667 3.21534 11.6667 6.22222C11.6667 9.22911 9.22911 11.6667 6.22222 11.6667C3.21534 11.6667 0.777778 9.22911 0.777778 6.22222Z" fill="#A5A5A5"/>
</svg>
