<svg width="18" height="18" viewBox="0 0 18 18" fill="none" xmlns="http://www.w3.org/2000/svg">
<path d="M10.009 2.74165C9.43688 2.22153 8.56312 2.22153 7.99099 2.74165L3.49099 6.83256C3.17828 7.11684 3 7.51985 3 7.94247V13.5001C3 14.3285 3.67157 15.0001 4.5 15.0001H6C6.82843 15.0001 7.5 14.3285 7.5 13.5001V11.0001C7.5 10.724 7.72386 10.5001 8 10.5001H10C10.2761 10.5001 10.5 10.724 10.5 11.0001V13.5001C10.5 14.3285 11.1716 15.0001 12 15.0001H13.5C14.3284 15.0001 15 14.3285 15 13.5001V7.94247C15 7.51985 14.8217 7.11684 14.509 6.83256L10.009 2.74165ZM8.66366 3.48159C8.85437 3.30822 9.14563 3.30822 9.33634 3.48159L13.8363 7.5725C13.9406 7.66726 14 7.8016 14 7.94247V13.5001C14 13.7762 13.7761 14.0001 13.5 14.0001H12C11.7239 14.0001 11.5 13.7762 11.5 13.5001V11.0001C11.5 10.1717 10.8284 9.5001 10 9.5001H8C7.17157 9.5001 6.5 10.1717 6.5 11.0001V13.5001C6.5 13.7762 6.27614 14.0001 6 14.0001H4.5C4.22386 14.0001 4 13.7762 4 13.5001V7.94247C4 7.8016 4.05943 7.66726 4.16366 7.5725L8.66366 3.48159Z" fill="#080808"/>
</svg>
