<svg width="106" height="106" viewBox="0 0 106 106" fill="none" xmlns="http://www.w3.org/2000/svg">
<path d="M71.2188 48.8594C72.5769 48.8594 73.7031 49.9856 73.7031 51.3438C73.7031 52.7019 72.5769 53.8281 71.2188 53.8281C69.8606 53.8281 68.7344 52.7019 68.7344 51.3438C68.7344 49.9856 69.8606 48.8594 71.2188 48.8594ZM34.7812 48.8594C36.1394 48.8594 37.2656 49.9856 37.2656 51.3438C37.2656 52.7019 36.1394 53.8281 34.7812 53.8281C33.4231 53.8281 32.2969 52.7019 32.2969 51.3438C32.2969 49.9856 33.4231 48.8594 34.7812 48.8594Z" fill="#5D5D5D"/>
<path d="M91.0938 102.688H14.9062C13.992 102.688 13.25 101.946 13.25 101.031V4.96875C13.25 4.0545 13.992 3.3125 14.9062 3.3125H71.2188C72.133 3.3125 72.875 4.0545 72.875 4.96875C72.875 5.883 72.133 6.625 71.2188 6.625H16.5625V99.375H89.4375V24.8438C89.4375 23.9295 90.1795 23.1875 91.0938 23.1875C92.008 23.1875 92.75 23.9295 92.75 24.8438V101.031C92.75 101.946 92.008 102.688 91.0938 102.688Z" fill="#5D5D5D"/>
<path d="M91.0242 26.5H71.2188C70.3045 26.5 69.5625 25.758 69.5625 24.8438V13.25C69.5625 12.3358 70.3045 11.5938 71.2188 11.5938C72.133 11.5938 72.875 12.3358 72.875 13.25V23.1875H87.0326L70.0461 6.13807C69.4002 5.49213 69.4035 4.44207 70.0494 3.79613C70.6987 3.15019 71.7487 3.15019 72.3914 3.80275L92.1968 23.6778C92.6705 24.1514 92.8096 24.8603 92.5546 25.4798C92.2962 26.0959 91.6933 26.5 91.0242 26.5ZM57.9688 62.9375C57.0545 62.9375 56.3125 62.1955 56.3125 61.2812C56.3125 59.4528 54.8252 57.9688 53 57.9688C51.1748 57.9688 49.6875 59.4528 49.6875 61.2812C49.6875 62.1955 48.9455 62.9375 48.0312 62.9375C47.117 62.9375 46.375 62.1955 46.375 61.2812C46.375 57.6276 49.3463 54.6563 53 54.6563C56.6537 54.6563 59.625 57.6276 59.625 61.2812C59.625 62.1955 58.883 62.9375 57.9688 62.9375ZM71.2188 55.4844C68.9364 55.4844 67.0781 53.6261 67.0781 51.3438C67.0781 49.0614 68.9364 47.2031 71.2188 47.2031C73.5011 47.2031 75.3594 49.0614 75.3594 51.3438C75.3594 53.6261 73.5011 55.4844 71.2188 55.4844ZM71.2188 50.5156C70.7782 50.5156 70.3906 50.9032 70.3906 51.3438C70.3906 51.7843 70.7782 52.1719 71.2188 52.1719C71.6593 52.1719 72.0469 51.7843 72.0469 51.3438C72.0469 50.9032 71.6593 50.5156 71.2188 50.5156ZM34.7812 55.4844C32.4989 55.4844 30.6406 53.6261 30.6406 51.3438C30.6406 49.0614 32.4989 47.2031 34.7812 47.2031C37.0636 47.2031 38.9219 49.0614 38.9219 51.3438C38.9219 53.6261 37.0636 55.4844 34.7812 55.4844ZM34.7812 50.5156C34.3407 50.5156 33.9531 50.9032 33.9531 51.3438C33.9531 51.7843 34.3407 52.1719 34.7812 52.1719C35.2218 52.1719 35.6094 51.7843 35.6094 51.3438C35.6094 50.9032 35.2218 50.5156 34.7812 50.5156Z" fill="#5D5D5D"/>
<path d="M91.0938 102.688H14.9062C13.992 102.688 13.25 101.946 13.25 101.031V4.96875C13.25 4.0545 13.992 3.3125 14.9062 3.3125H71.2188C72.133 3.3125 72.875 4.0545 72.875 4.96875C72.875 5.883 72.133 6.625 71.2188 6.625H16.5625V99.375H89.4375V24.8438C89.4375 23.9295 90.1795 23.1875 91.0938 23.1875C92.008 23.1875 92.75 23.9295 92.75 24.8438V101.031C92.75 101.946 92.008 102.688 91.0938 102.688Z" fill="#5D5D5D"/>
<path d="M91.0242 26.5H71.2188C70.3045 26.5 69.5625 25.758 69.5625 24.8438V13.25C69.5625 12.3358 70.3045 11.5938 71.2188 11.5938C72.133 11.5938 72.875 12.3358 72.875 13.25V23.1875H87.0326L70.0461 6.13807C69.4002 5.49213 69.4035 4.44207 70.0494 3.79613C70.6987 3.15019 71.7487 3.15019 72.3914 3.80275L92.1968 23.6778C92.6705 24.1514 92.8096 24.8603 92.5546 25.4798C92.2962 26.0959 91.6933 26.5 91.0242 26.5ZM57.9688 62.9375C57.0545 62.9375 56.3125 62.1955 56.3125 61.2812C56.3125 59.4528 54.8252 57.9688 53 57.9688C51.1748 57.9688 49.6875 59.4528 49.6875 61.2812C49.6875 62.1955 48.9455 62.9375 48.0312 62.9375C47.117 62.9375 46.375 62.1955 46.375 61.2812C46.375 57.6276 49.3463 54.6563 53 54.6563C56.6537 54.6563 59.625 57.6276 59.625 61.2812C59.625 62.1955 58.883 62.9375 57.9688 62.9375ZM71.2188 55.4844C68.9364 55.4844 67.0781 53.6261 67.0781 51.3438C67.0781 49.0614 68.9364 47.2031 71.2188 47.2031C73.5011 47.2031 75.3594 49.0614 75.3594 51.3438C75.3594 53.6261 73.5011 55.4844 71.2188 55.4844ZM71.2188 50.5156C70.7782 50.5156 70.3906 50.9032 70.3906 51.3438C70.3906 51.7843 70.7782 52.1719 71.2188 52.1719C71.6593 52.1719 72.0469 51.7843 72.0469 51.3438C72.0469 50.9032 71.6593 50.5156 71.2188 50.5156ZM34.7812 55.4844C32.4989 55.4844 30.6406 53.6261 30.6406 51.3438C30.6406 49.0614 32.4989 47.2031 34.7812 47.2031C37.0636 47.2031 38.9219 49.0614 38.9219 51.3438C38.9219 53.6261 37.0636 55.4844 34.7812 55.4844ZM34.7812 50.5156C34.3407 50.5156 33.9531 50.9032 33.9531 51.3438C33.9531 51.7843 34.3407 52.1719 34.7812 52.1719C35.2218 52.1719 35.6094 51.7843 35.6094 51.3438C35.6094 50.9032 35.2218 50.5156 34.7812 50.5156Z" fill="#5D5D5D"/>
</svg>
