<svg width="80" height="41" viewBox="0 0 80 41" fill="none" xmlns="http://www.w3.org/2000/svg">
<path d="M80 3.46726C79.783 1.69118 78.4654 0.275599 76.7875 0C69.433 0 10.599 0 3.24452 0C1.40661 0.302046 0 1.97095 0 3.98227C0 7.21569 0 33.0775 0 36.3095C0 38.5366 1.72104 40.3419 3.84556 40.3419C11.079 40.3419 68.953 40.3419 76.1864 40.3419C78.1426 40.3419 79.7579 38.8094 80 36.8259C80 30.1544 80 6.80229 80 3.46726Z" fill="#F6C700"/>
<path d="M9.64868 8.10645H15.9972V32.5554H9.64868V8.10645Z" fill="black"/>
<path d="M27.9931 19.3683C27.4477 15.6422 27.1444 13.571 27.0845 13.1576C26.8188 11.163 26.5656 9.42729 26.3235 7.94629C25.7739 7.94629 23.0317 7.94629 18.0925 7.94629V32.3953H23.6536L23.6731 16.2518L26.0132 32.3953H29.9743L32.1934 15.8927L32.2143 32.3953H37.7572V7.94629H29.4637L27.9931 19.3683Z" fill="black"/>
<path d="M48.2379 13.0323C48.3075 13.3441 48.3437 14.0512 48.3437 15.1564C48.3437 16.1043 48.3437 23.6875 48.3437 24.6354C48.3437 26.2625 48.2379 27.2591 48.0278 27.6266C47.8163 27.994 47.2543 28.1764 46.343 28.1764C46.343 26.5715 46.343 13.7325 46.343 12.1276C47.0344 12.1276 47.5061 12.2014 47.7565 12.3461C48.007 12.4923 48.1683 12.7206 48.2379 13.0323ZM51.1054 32.1461C51.8609 31.9805 52.4953 31.6882 53.0101 31.272C53.5235 30.8544 53.8838 30.2768 54.0897 29.5377C54.297 28.8 54.4195 27.3343 54.4195 25.142C54.4195 24.2846 54.4195 17.4155 54.4195 16.5567C54.4195 14.2433 54.329 12.6927 54.1885 11.9049C54.0466 11.1157 53.6946 10.3988 53.1311 9.75578C52.5663 9.11271 51.7426 8.6506 50.6602 8.36943C49.5763 8.08826 47.8094 7.94629 44.736 7.94629C44.4202 7.94629 42.8424 7.94629 40 7.94629V32.3953H47.6911C49.4637 32.3396 50.6017 32.2575 51.1054 32.1461Z" fill="black"/>
<path d="M64.6622 28.4924C64.5454 28.8028 64.0334 28.9601 63.6466 28.9601C63.2682 28.9601 63.0163 28.8098 62.8883 28.5077C62.7603 28.2071 62.6977 27.5209 62.6977 26.4463C62.6977 25.8005 62.6977 20.6309 62.6977 19.985C62.6977 18.8715 62.7534 18.1769 62.8661 17.9C62.9774 17.6257 63.2222 17.4865 63.6007 17.4865C63.9875 17.4865 64.5064 17.6438 64.64 17.9598C64.7722 18.2758 64.8389 18.9508 64.8389 19.985C64.8389 20.4026 64.8389 22.4905 64.8389 26.25C64.7986 27.5376 64.7402 28.285 64.6622 28.4924ZM56.5815 32.1824H62.297C62.5349 31.2484 62.6657 30.7292 62.6922 30.6248C63.2097 31.2512 63.7788 31.7217 64.4035 32.0335C65.0254 32.3466 65.9562 32.5025 66.6769 32.5025C67.68 32.5025 68.5454 32.2395 69.2758 31.7119C70.0049 31.1858 70.4696 30.5622 70.6671 29.8454C70.8647 29.1271 70.9635 28.0359 70.9635 26.5688C70.9635 25.8826 70.9635 20.3957 70.9635 19.7094C70.9635 18.234 70.9301 17.2708 70.8647 16.8184C70.7993 16.3661 70.6045 15.9053 70.2803 15.4335C69.9562 14.9616 69.4845 14.5955 68.8668 14.3339C68.249 14.0722 67.52 13.9413 66.6796 13.9413C65.9492 13.9413 65.0142 14.0875 64.3909 14.3756C63.769 14.6637 63.2042 15.1008 62.6977 15.6868C62.6977 15.1565 62.6977 12.5063 62.6977 7.7334H56.5815V32.1824Z" fill="black"/>
</svg>
