<svg width="22" height="20" viewBox="0 0 22 20" fill="none" xmlns="http://www.w3.org/2000/svg">
<path d="M10.6631 18C10.3852 17.9997 10.1138 17.9188 9.88428 17.7679C6.48393 15.545 5.01156 14.0208 4.19944 13.0679C2.46876 11.0367 1.6402 8.95125 1.66357 6.69292C1.69082 4.105 3.84682 2 6.46966 2C8.37686 2 9.6978 3.03458 10.4671 3.89625C10.4915 3.92327 10.5216 3.94494 10.5554 3.95979C10.5892 3.97463 10.6259 3.98232 10.6631 3.98232C10.7002 3.98232 10.737 3.97463 10.7708 3.95979C10.8046 3.94494 10.8347 3.92327 10.8591 3.89625C11.6284 3.03375 12.9493 2 14.8565 2C17.4794 2 19.6353 4.105 19.6626 6.69333C19.686 8.95208 18.8565 11.0375 17.1267 13.0683C16.3146 14.0213 14.8422 15.5454 11.4419 17.7683C11.2123 17.9191 10.9409 17.9998 10.6631 18Z" fill="#F5C518"/>
</svg>
