<svg width="22" height="22" viewBox="0 0 22 22" fill="none" xmlns="http://www.w3.org/2000/svg">
<g clip-path="url(#clip0_8446_617)">
<path d="M8.22356 14.9087V10.9252L7.06287 11.2886V10.4549L9.14652 9.85627V14.9087H8.22356Z" fill="#EAEAEA"/>
<path d="M12.6587 15.0156C12.2671 15.0156 11.9245 14.9111 11.6309 14.7021C11.3372 14.4883 11.1088 14.189 10.9456 13.8042C10.7871 13.4146 10.7079 12.9562 10.7079 12.4288C10.7079 11.9062 10.7871 11.4502 10.9456 11.0606C11.1088 10.671 11.3372 10.3717 11.6309 10.1627C11.9245 9.94891 12.2671 9.84202 12.6587 9.84202C13.0503 9.84202 13.3929 9.94891 13.6866 10.1627C13.9802 10.3717 14.2063 10.671 14.3648 11.0606C14.5279 11.4502 14.6095 11.9062 14.6095 12.4288C14.6095 12.9562 14.5279 13.4146 14.3648 13.8042C14.2063 14.189 13.9802 14.4883 13.6866 14.7021C13.3929 14.9111 13.0503 15.0156 12.6587 15.0156ZM12.6587 14.1747C12.9664 14.1747 13.2111 14.0203 13.3929 13.7115C13.5793 13.4027 13.6726 12.9752 13.6726 12.4288C13.6726 11.8825 13.5793 11.4549 13.3929 11.1461C13.2111 10.8373 12.9664 10.6829 12.6587 10.6829C12.3511 10.6829 12.104 10.8373 11.9175 11.1461C11.7357 11.4549 11.6448 11.8825 11.6448 12.4288C11.6448 12.9752 11.7357 13.4027 11.9175 13.7115C12.104 14.0203 12.3511 14.1747 12.6587 14.1747Z" fill="#EAEAEA"/>
<path fill-rule="evenodd" clip-rule="evenodd" d="M8.78644 2.10653L10.3532 3.89608C9.70233 4.00418 9.01048 4.17522 8.34318 4.40136C7.30057 4.75469 6.2684 5.25912 5.54337 5.91083C4.15601 7.15788 3.22014 8.84395 2.88605 10.6983C2.55195 12.5526 2.83902 14.4675 3.70116 16.1355C4.56329 17.8036 5.95046 19.1279 7.63989 19.8958C9.32931 20.6638 11.223 20.8308 13.0167 20.37C14.8104 19.9092 16.4002 18.8474 17.5306 17.3551C18.6611 15.8628 19.2666 14.0266 19.25 12.1413C19.2474 11.8379 19.0039 11.5942 18.7062 11.5969C18.4085 11.5996 18.1693 11.8478 18.172 12.1512C18.1864 13.7901 17.66 15.3863 16.6773 16.6836C15.6946 17.9809 14.3125 18.904 12.7532 19.3046C11.1939 19.7051 9.54768 19.56 8.07903 18.8924C6.61038 18.2248 5.40448 17.0735 4.65501 15.6234C3.90553 14.1734 3.65597 12.5087 3.94641 10.8967C4.23685 9.28471 5.05042 7.81897 6.25648 6.73489C6.82815 6.22103 7.70727 5.77477 8.68334 5.444C9.15538 5.28403 9.6385 5.15497 10.1035 5.05928L8.787 6.59897L9.59977 7.32085L11.8551 4.68322C12.0336 4.47451 12.0318 4.16308 11.851 3.95652L9.59086 1.375L8.78644 2.10653ZM11.9272 2.06692L13.6958 4.30786L11.9245 6.37537L12.7366 7.09802L14.805 4.68366C14.9769 4.48301 14.9828 4.18558 14.819 3.97801L12.7673 1.37827L11.9272 2.06692Z" fill="#EAEAEA"/>
</g>
<defs>
<clipPath id="clip0_8446_617">
<rect width="22" height="22" fill="white"/>
</clipPath>
</defs>
</svg>
