<svg width="12" height="11" viewBox="0 0 12 11" fill="none" xmlns="http://www.w3.org/2000/svg">
<path d="M9.44962 10.9988C9.36542 10.9991 9.28327 10.9734 9.21485 10.9252L5.99938 8.63612L2.7839 10.9252C2.7152 10.9741 2.63244 11.0003 2.54757 11C2.46271 10.9997 2.38015 10.9729 2.31181 10.9235C2.24348 10.8741 2.19292 10.8046 2.16745 10.7251C2.14197 10.6456 2.1429 10.5602 2.1701 10.4813L3.42419 6.83389L0.173961 4.64525C0.103559 4.5979 0.0504236 4.52968 0.0223183 4.45056C-0.00578693 4.37144 -0.00738897 4.28557 0.0177463 4.20549C0.0428816 4.12542 0.0934369 4.05533 0.162026 4.00548C0.230614 3.95562 0.313642 3.92861 0.398977 3.92839H4.40876L5.61885 0.271653C5.64492 0.192706 5.69578 0.123894 5.76414 0.0750908C5.83251 0.0262874 5.91486 0 5.99938 0C6.0839 0 6.16625 0.0262874 6.23461 0.0750908C6.30297 0.123894 6.35384 0.192706 6.3799 0.271653L7.58999 3.92962H11.5998C11.6852 3.92958 11.7684 3.9564 11.8372 4.00616C11.906 4.05592 11.9568 4.126 11.9821 4.20613C12.0074 4.28627 12.0059 4.37226 11.9778 4.4515C11.9497 4.53074 11.8965 4.59907 11.826 4.64648L8.57456 6.83389L9.8279 10.4803C9.84821 10.5394 9.85392 10.6023 9.84456 10.6639C9.83521 10.7256 9.81105 10.7841 9.7741 10.8348C9.73714 10.8854 9.68844 10.9267 9.63202 10.9552C9.5756 10.9838 9.51308 10.9987 9.44962 10.9988Z" fill="#F5C518"/>
</svg>
