<svg width="22" height="22" viewBox="0 0 22 22" fill="none" xmlns="http://www.w3.org/2000/svg">
<g clip-path="url(#clip0_8446_608)">
<path d="M8.39921 14.6422V10.7298L7.25924 11.0867V10.2678L9.30569 9.67992V14.6422H8.39921Z" fill="#EAEAEA"/>
<path d="M12.7552 14.7472C12.3706 14.7472 12.0341 14.6445 11.7457 14.4392C11.4572 14.2292 11.2329 13.9353 11.0727 13.5573C10.917 13.1747 10.8392 12.7245 10.8392 12.2065C10.8392 11.6933 10.917 11.2454 11.0727 10.8627C11.2329 10.4801 11.4572 10.1862 11.7457 9.98088C12.0341 9.77091 12.3706 9.66592 12.7552 9.66592C13.1397 9.66592 13.4762 9.77091 13.7646 9.98088C14.0531 10.1862 14.2751 10.4801 14.4308 10.8627C14.591 11.2454 14.6711 11.6933 14.6711 12.2065C14.6711 12.7245 14.591 13.1747 14.4308 13.5573C14.2751 13.9353 14.0531 14.2292 13.7646 14.4392C13.4762 14.6445 13.1397 14.7472 12.7552 14.7472ZM12.7552 13.9213C13.0573 13.9213 13.2977 13.7696 13.4762 13.4663C13.6593 13.1631 13.7509 12.7431 13.7509 12.2065C13.7509 11.67 13.6593 11.25 13.4762 10.9467C13.2977 10.6434 13.0573 10.4918 12.7552 10.4918C12.453 10.4918 12.2103 10.6434 12.0272 10.9467C11.8487 11.25 11.7594 11.67 11.7594 12.2065C11.7594 12.7431 11.8487 13.1631 12.0272 13.4663C12.2103 13.7696 12.453 13.9213 12.7552 13.9213Z" fill="#EAEAEA"/>
<path fill-rule="evenodd" clip-rule="evenodd" d="M12.9783 2.06856L11.4396 3.82616C12.0788 3.93233 12.7583 4.10032 13.4137 4.32242C14.4377 4.66943 15.4514 5.16486 16.1635 5.80493C17.5261 7.02971 18.4452 8.68567 18.7734 10.5069C19.1015 12.3281 18.8195 14.2088 17.9728 15.8471C17.1261 17.4853 15.7637 18.786 14.1044 19.5402C12.4452 20.2944 10.5853 20.4585 8.82361 20.0059C7.0619 19.5534 5.50054 18.5105 4.39027 17.0449C3.28001 15.5792 2.68527 13.7758 2.70158 11.9242C2.70421 11.6262 2.94336 11.3868 3.23574 11.3895C3.52812 11.3922 3.76301 11.6359 3.76038 11.9339C3.7462 13.5435 4.26322 15.1112 5.2284 16.3854C6.19357 17.6595 7.5509 18.5661 9.0824 18.9595C10.6139 19.3529 12.2307 19.2103 13.6731 18.5547C15.1155 17.899 16.2999 16.7683 17.036 15.3441C17.7721 13.9199 18.0172 12.285 17.7319 10.7018C17.4467 9.11856 16.6476 7.679 15.4631 6.61427C14.9017 6.10959 14.0382 5.6713 13.0796 5.34643C12.616 5.18932 12.1415 5.06257 11.6847 4.96859L12.9778 6.48078L12.1795 7.18977L9.96444 4.59924C9.78917 4.39426 9.79092 4.08839 9.96854 3.88551L12.1883 1.3501L12.9783 2.06856ZM9.89362 2.02966L8.15668 4.23058L9.89628 6.26117L9.09867 6.97093L7.06724 4.59968C6.89841 4.4026 6.89262 4.11049 7.0535 3.90663L9.06855 1.35331L9.89362 2.02966Z" fill="#EAEAEA"/>
</g>
<defs>
<clipPath id="clip0_8446_608">
<rect width="22" height="22" fill="white"/>
</clipPath>
</defs>
</svg>
